<?xml version="1.0" encoding="UTF-8"?>
<svg width="32px" height="32px" viewBox="0 0 32 32" version="1.1" xmlns="http://www.w3.org/2000/svg" xmlns:xlink="http://www.w3.org/1999/xlink">
    <!-- Generator: Sketch 52.2 (67145) - http://www.bohemiancoding.com/sketch -->
    <title>icon/plus</title>
    <desc>Created with Sketch.</desc>
    <g id="Page-1" stroke="none" stroke-width="1" fill="none" fill-rule="evenodd">
        <g id="OFROU/db--01-mosaic" transform="translate(-77.000000, -173.000000)" fill="#123447">
            <g id="icon/plus" transform="translate(77.000000, 173.000000)">
                <g>
                    <path d="M7.999,14.857 C7.994,14.857 7.989,14.857 7.983,14.857 C7.352,14.857 6.84,15.368 6.84,16 C6.84,16.632 7.351,17.143 7.983,17.143 C7.989,17.143 7.994,17.143 8,17.143 L23.998,17.143 C24.003,17.143 24.008,17.143 24.014,17.143 C24.645,17.143 25.157,16.632 25.157,16 C25.157,15.368 24.646,14.857 24.014,14.857 C24.008,14.857 24.003,14.857 23.997,14.857 L7.999,14.857 Z" id="Path"></path>
                    <path d="M17.142,8 C17.142,7.995 17.142,7.99 17.142,7.984 C17.142,7.353 16.631,6.841 15.999,6.841 C15.367,6.841 14.856,7.352 14.856,7.984 C14.856,7.99 14.856,7.995 14.856,8.001 L14.856,8 L14.856,23.999 C14.856,24.004 14.856,24.009 14.856,24.015 C14.856,24.646 15.367,25.158 15.999,25.158 C16.631,25.158 17.142,24.647 17.142,24.015 C17.142,24.009 17.142,24.004 17.142,23.998 L17.142,23.999 L17.142,8 Z" id="Path"></path>
                    <path d="M15.999,2.30926389e-14 C7.176,2.30926389e-14 2.30926389e-14,7.177 2.30926389e-14,15.999 C2.30926389e-14,24.821 7.177,31.998 15.999,31.998 C24.822,31.998 31.998,24.821 31.998,15.999 C31.998,7.177 24.821,2.30926389e-14 15.999,2.30926389e-14 Z M15.999,2.286 C23.587,2.286 29.713,8.413 29.713,16 C29.713,23.587 23.587,29.714 15.999,29.714 C8.411,29.714 2.285,23.588 2.285,16 C2.285,8.412 8.411,2.286 15.999,2.286 Z" id="Shape"></path>
                </g>
            </g>
        </g>
    </g>
</svg>
