<?xml version="1.0" encoding="UTF-8"?>
<svg width="22px" height="20px" viewBox="0 0 22 20" version="1.1" xmlns="http://www.w3.org/2000/svg" xmlns:xlink="http://www.w3.org/1999/xlink">
    <!-- Generator: Sketch 52.2 (67145) - http://www.bohemiancoding.com/sketch -->
    <title>icon/view--mosaic copy</title>
    <desc>Created with Sketch.</desc>
    <g id="Page-1" stroke="none" stroke-width="1" fill="none" fill-rule="evenodd">
        <g id="OFROU/db--01-mosaic" transform="translate(-1241.000000, -293.000000)" fill="#D4D4D4">
            <g id="icon/view--mosaic" transform="translate(1241.000000, 293.000000)">
                <path d="M0,0 L5.5,0 L5.5,5.45454545 L0,5.45454545 L0,0 Z M0,7.27272727 L5.5,7.27272727 L5.5,12.7272727 L0,12.7272727 L0,7.27272727 Z M8.25,0 L13.75,0 L13.75,5.45454545 L8.25,5.45454545 L8.25,0 Z M8.25,7.27272727 L13.75,7.27272727 L13.75,12.7272727 L8.25,12.7272727 L8.25,7.27272727 Z M16.5,0 L22,0 L22,5.45454545 L16.5,5.45454545 L16.5,0 Z M16.5,7.27272727 L22,7.27272727 L22,12.7272727 L16.5,12.7272727 L16.5,7.27272727 Z M0,14.5454545 L5.5,14.5454545 L5.5,20 L0,20 L0,14.5454545 Z M8.25,14.5454545 L13.75,14.5454545 L13.75,20 L8.25,20 L8.25,14.5454545 Z M16.5,14.5454545 L22,14.5454545 L22,20 L16.5,20 L16.5,14.5454545 Z" id="Combined-Shape"></path>
            </g>
        </g>
    </g>
</svg>